<?xml version="1.0" ?><svg viewBox="0 0 64 64" xmlns="http://www.w3.org/2000/svg"><defs><style>.cls-1{fill:#ecf0f1;}.cls-1,.cls-2,.cls-3{stroke:#434a54;stroke-linecap:round;stroke-linejoin:round;stroke-width:2px;}.cls-2{fill:#f1c40f;}.cls-3,.cls-4{fill:none;}</style></defs><title/><g data-name="katman 2" id="katman_2"><g id="icons"><path class="cls-1" d="M5,17A12,12,0,0,1,17,5"/><path class="cls-1" d="M22,59H17"/><path class="cls-1" d="M59,47A12,12,0,0,1,47,59"/><path class="cls-1" d="M59,17V40.25"/><rect class="cls-1" height="46" rx="8" ry="8" width="46" x="9" y="9"/><circle class="cls-2" cx="32" cy="32" r="15"/><circle class="cls-2" cx="16" cy="16" r="2"/><circle class="cls-2" cx="48" cy="16" r="2"/><circle class="cls-2" cx="16" cy="48" r="2"/><circle class="cls-2" cx="48" cy="48" r="2"/><line class="cls-3" x1="32" x2="32" y1="17" y2="23"/><line class="cls-3" x1="32" x2="32" y1="41" y2="47"/><circle class="cls-1" cx="26" cy="32" r="3"/><circle class="cls-1" cx="38" cy="32" r="3"/><rect class="cls-4" height="64" width="64"/></g></g></svg>