<?xml version="1.0" ?><svg viewBox="0 0 64 64" xmlns="http://www.w3.org/2000/svg"><defs><style>.cls-1,.cls-2{fill:none;}.cls-1{stroke:#434a54;stroke-linecap:round;stroke-linejoin:round;stroke-width:2px;}</style></defs><title/><g data-name="katman 2" id="katman_2"><g id="icons"><rect class="cls-1" height="46" rx="4" ry="4" width="16" x="24" y="5"/><circle class="cls-1" cx="32" cy="14" r="5"/><line class="cls-1" x1="32" x2="32" y1="10" y2="11"/><line class="cls-1" x1="32" x2="32" y1="17" y2="18"/><line class="cls-1" x1="30" x2="30.01" y1="14" y2="14"/><line class="cls-1" x1="34" x2="34.01" y1="14" y2="14"/><circle class="cls-1" cx="32" cy="28" r="5"/><line class="cls-1" x1="32" x2="32" y1="24" y2="25"/><line class="cls-1" x1="32" x2="32" y1="31" y2="32"/><line class="cls-1" x1="30" x2="30.01" y1="28" y2="28"/><line class="cls-1" x1="34" x2="34.01" y1="28" y2="28"/><circle class="cls-1" cx="32" cy="42" r="5"/><line class="cls-1" x1="32" x2="32" y1="38" y2="39"/><line class="cls-1" x1="32" x2="32" y1="45" y2="46"/><line class="cls-1" x1="30" x2="30.01" y1="42" y2="42"/><line class="cls-1" x1="34" x2="34.01" y1="42" y2="42"/><path class="cls-1" d="M29,51h6a0,0,0,0,1,0,0v2a2,2,0,0,1-2,2H31a2,2,0,0,1-2-2V51A0,0,0,0,1,29,51Z"/><line class="cls-1" x1="32" x2="32" y1="55" y2="59"/><line class="cls-1" x1="44" x2="44" y1="10" y2="25"/><line class="cls-1" x1="20" x2="20" y1="32" y2="37"/><line class="cls-1" x1="20" x2="20" y1="43" y2="45"/><rect class="cls-2" height="64" width="64"/></g></g></svg>