<?xml version="1.0" ?><svg viewBox="0 0 64 64" xmlns="http://www.w3.org/2000/svg"><defs><style>.cls-1,.cls-2{fill:none;}.cls-1{stroke:#434a54;stroke-linecap:round;stroke-linejoin:round;stroke-width:2px;}</style></defs><title/><g data-name="katman 2" id="katman_2"><g id="icons"><path class="cls-1" d="M5,17A12,12,0,0,1,17,5"/><line class="cls-1" x1="22" x2="17" y1="59" y2="59"/><path class="cls-1" d="M59,47A12,12,0,0,1,47,59"/><line class="cls-1" x1="59" x2="59" y1="17" y2="40.25"/><rect class="cls-1" height="46" rx="8" ry="8" width="46" x="9" y="9"/><circle class="cls-1" cx="32" cy="32" r="15"/><circle class="cls-1" cx="16" cy="16" r="2"/><circle class="cls-1" cx="48" cy="16" r="2"/><circle class="cls-1" cx="16" cy="48" r="2"/><circle class="cls-1" cx="48" cy="48" r="2"/><line class="cls-1" x1="32" x2="32" y1="17" y2="23"/><line class="cls-1" x1="32" x2="32" y1="41" y2="47"/><circle class="cls-1" cx="26" cy="32" r="3"/><circle class="cls-1" cx="38" cy="32" r="3"/><rect class="cls-2" height="64" width="64"/></g></g></svg>